<mxfile host="app.diagrams.net" modified="2023-10-31T10:44:25.233Z" agent="Mozilla/5.0 (Macintosh; Intel Mac OS X 10_15_7) AppleWebKit/605.1.15 (KHTML, like Gecko) Version/16.4 Safari/605.1.15" etag="AZN9U27dWl8f_sR2CU_G" version="22.0.8" type="github">
  <diagram name="Страница — 1" id="MkLtNafajizYG9asPIRC">
    <mxGraphModel dx="1514" dy="2063" grid="1" gridSize="10" guides="1" tooltips="1" connect="1" arrows="1" fold="1" page="1" pageScale="1" pageWidth="827" pageHeight="1169" math="0" shadow="0">
      <root>
        <mxCell id="0" />
        <mxCell id="1" parent="0" />
        <mxCell id="CWqJ3quyl7Pq7LgmfmJd-64" style="edgeStyle=orthogonalEdgeStyle;rounded=0;orthogonalLoop=1;jettySize=auto;html=1;" edge="1" parent="1" source="CWqJ3quyl7Pq7LgmfmJd-1" target="CWqJ3quyl7Pq7LgmfmJd-6">
          <mxGeometry relative="1" as="geometry" />
        </mxCell>
        <mxCell id="CWqJ3quyl7Pq7LgmfmJd-65" style="edgeStyle=orthogonalEdgeStyle;rounded=0;orthogonalLoop=1;jettySize=auto;html=1;entryX=0.5;entryY=1;entryDx=0;entryDy=0;" edge="1" parent="1" source="CWqJ3quyl7Pq7LgmfmJd-1" target="CWqJ3quyl7Pq7LgmfmJd-12">
          <mxGeometry relative="1" as="geometry" />
        </mxCell>
        <mxCell id="CWqJ3quyl7Pq7LgmfmJd-66" style="edgeStyle=orthogonalEdgeStyle;rounded=0;orthogonalLoop=1;jettySize=auto;html=1;entryX=0.5;entryY=1;entryDx=0;entryDy=0;" edge="1" parent="1" source="CWqJ3quyl7Pq7LgmfmJd-1" target="CWqJ3quyl7Pq7LgmfmJd-11">
          <mxGeometry relative="1" as="geometry" />
        </mxCell>
        <mxCell id="CWqJ3quyl7Pq7LgmfmJd-92" style="edgeStyle=orthogonalEdgeStyle;rounded=0;orthogonalLoop=1;jettySize=auto;html=1;entryX=0.5;entryY=1;entryDx=0;entryDy=0;" edge="1" parent="1" source="CWqJ3quyl7Pq7LgmfmJd-1" target="CWqJ3quyl7Pq7LgmfmJd-91">
          <mxGeometry relative="1" as="geometry" />
        </mxCell>
        <mxCell id="CWqJ3quyl7Pq7LgmfmJd-1" value="User" style="shape=umlActor;verticalLabelPosition=bottom;verticalAlign=top;html=1;outlineConnect=0;" vertex="1" parent="1">
          <mxGeometry x="110" y="310" width="30" height="60" as="geometry" />
        </mxCell>
        <mxCell id="CWqJ3quyl7Pq7LgmfmJd-4" value="Magic document main page" style="swimlane;whiteSpace=wrap;html=1;" vertex="1" parent="1">
          <mxGeometry x="190" y="-10" width="1020" height="940" as="geometry" />
        </mxCell>
        <mxCell id="CWqJ3quyl7Pq7LgmfmJd-6" value="Create new document" style="ellipse;whiteSpace=wrap;html=1;" vertex="1" parent="CWqJ3quyl7Pq7LgmfmJd-4">
          <mxGeometry x="30" y="440" width="120" height="80" as="geometry" />
        </mxCell>
        <mxCell id="CWqJ3quyl7Pq7LgmfmJd-8" style="edgeStyle=orthogonalEdgeStyle;rounded=0;orthogonalLoop=1;jettySize=auto;html=1;dashed=1;endArrow=open;endFill=0;entryX=1;entryY=0.5;entryDx=0;entryDy=0;" edge="1" parent="CWqJ3quyl7Pq7LgmfmJd-4" source="CWqJ3quyl7Pq7LgmfmJd-7" target="CWqJ3quyl7Pq7LgmfmJd-6">
          <mxGeometry relative="1" as="geometry">
            <mxPoint x="90" y="530" as="targetPoint" />
          </mxGeometry>
        </mxCell>
        <mxCell id="CWqJ3quyl7Pq7LgmfmJd-10" value="include" style="edgeLabel;html=1;align=center;verticalAlign=middle;resizable=0;points=[];" vertex="1" connectable="0" parent="CWqJ3quyl7Pq7LgmfmJd-8">
          <mxGeometry x="-0.0631" y="1" relative="1" as="geometry">
            <mxPoint as="offset" />
          </mxGeometry>
        </mxCell>
        <mxCell id="CWqJ3quyl7Pq7LgmfmJd-7" value="Select name" style="ellipse;whiteSpace=wrap;html=1;" vertex="1" parent="CWqJ3quyl7Pq7LgmfmJd-4">
          <mxGeometry x="250" y="440" width="120" height="80" as="geometry" />
        </mxCell>
        <mxCell id="CWqJ3quyl7Pq7LgmfmJd-11" value="Registration" style="ellipse;whiteSpace=wrap;html=1;" vertex="1" parent="CWqJ3quyl7Pq7LgmfmJd-4">
          <mxGeometry x="550" y="210" width="120" height="80" as="geometry" />
        </mxCell>
        <mxCell id="CWqJ3quyl7Pq7LgmfmJd-12" value="Authorization" style="ellipse;whiteSpace=wrap;html=1;" vertex="1" parent="CWqJ3quyl7Pq7LgmfmJd-4">
          <mxGeometry x="310" y="210" width="120" height="80" as="geometry" />
        </mxCell>
        <mxCell id="CWqJ3quyl7Pq7LgmfmJd-14" style="edgeStyle=orthogonalEdgeStyle;rounded=0;orthogonalLoop=1;jettySize=auto;html=1;dashed=1;endArrow=open;endFill=0;entryX=0.5;entryY=1;entryDx=0;entryDy=0;" edge="1" parent="CWqJ3quyl7Pq7LgmfmJd-4" source="CWqJ3quyl7Pq7LgmfmJd-13" target="CWqJ3quyl7Pq7LgmfmJd-6">
          <mxGeometry relative="1" as="geometry" />
        </mxCell>
        <mxCell id="CWqJ3quyl7Pq7LgmfmJd-15" value="extend" style="edgeLabel;html=1;align=center;verticalAlign=middle;resizable=0;points=[];" vertex="1" connectable="0" parent="CWqJ3quyl7Pq7LgmfmJd-14">
          <mxGeometry x="-0.2265" y="1" relative="1" as="geometry">
            <mxPoint as="offset" />
          </mxGeometry>
        </mxCell>
        <mxCell id="CWqJ3quyl7Pq7LgmfmJd-13" value="Grant access" style="ellipse;whiteSpace=wrap;html=1;" vertex="1" parent="CWqJ3quyl7Pq7LgmfmJd-4">
          <mxGeometry x="250" y="630" width="120" height="80" as="geometry" />
        </mxCell>
        <mxCell id="CWqJ3quyl7Pq7LgmfmJd-69" value="extend" style="edgeStyle=orthogonalEdgeStyle;rounded=0;orthogonalLoop=1;jettySize=auto;html=1;entryX=1;entryY=0.5;entryDx=0;entryDy=0;dashed=1;endArrow=open;endFill=0;" edge="1" parent="CWqJ3quyl7Pq7LgmfmJd-4" source="CWqJ3quyl7Pq7LgmfmJd-16" target="CWqJ3quyl7Pq7LgmfmJd-13">
          <mxGeometry relative="1" as="geometry" />
        </mxCell>
        <mxCell id="CWqJ3quyl7Pq7LgmfmJd-16" value="General" style="ellipse;whiteSpace=wrap;html=1;" vertex="1" parent="CWqJ3quyl7Pq7LgmfmJd-4">
          <mxGeometry x="470" y="540" width="120" height="80" as="geometry" />
        </mxCell>
        <mxCell id="CWqJ3quyl7Pq7LgmfmJd-70" value="extend" style="edgeStyle=orthogonalEdgeStyle;rounded=0;orthogonalLoop=1;jettySize=auto;html=1;entryX=1;entryY=0.5;entryDx=0;entryDy=0;endArrow=open;endFill=0;dashed=1;" edge="1" parent="CWqJ3quyl7Pq7LgmfmJd-4" source="CWqJ3quyl7Pq7LgmfmJd-28" target="CWqJ3quyl7Pq7LgmfmJd-13">
          <mxGeometry relative="1" as="geometry" />
        </mxCell>
        <mxCell id="CWqJ3quyl7Pq7LgmfmJd-28" value="Concrete user&lt;br&gt;(by mail)" style="ellipse;whiteSpace=wrap;html=1;" vertex="1" parent="CWqJ3quyl7Pq7LgmfmJd-4">
          <mxGeometry x="470" y="720" width="120" height="80" as="geometry" />
        </mxCell>
        <mxCell id="CWqJ3quyl7Pq7LgmfmJd-57" style="orthogonalLoop=1;jettySize=auto;html=1;entryX=1;entryY=0.5;entryDx=0;entryDy=0;dashed=1;endArrow=open;endFill=0;" edge="1" parent="CWqJ3quyl7Pq7LgmfmJd-4" source="CWqJ3quyl7Pq7LgmfmJd-35" target="CWqJ3quyl7Pq7LgmfmJd-16">
          <mxGeometry relative="1" as="geometry" />
        </mxCell>
        <mxCell id="CWqJ3quyl7Pq7LgmfmJd-87" value="extend" style="edgeLabel;html=1;align=center;verticalAlign=middle;resizable=0;points=[];" vertex="1" connectable="0" parent="CWqJ3quyl7Pq7LgmfmJd-57">
          <mxGeometry x="-0.6066" y="2" relative="1" as="geometry">
            <mxPoint x="-4" y="-1" as="offset" />
          </mxGeometry>
        </mxCell>
        <mxCell id="CWqJ3quyl7Pq7LgmfmJd-63" style="rounded=0;orthogonalLoop=1;jettySize=auto;html=1;entryX=1;entryY=0.5;entryDx=0;entryDy=0;dashed=1;endArrow=open;endFill=0;" edge="1" parent="CWqJ3quyl7Pq7LgmfmJd-4" source="CWqJ3quyl7Pq7LgmfmJd-35" target="CWqJ3quyl7Pq7LgmfmJd-28">
          <mxGeometry relative="1" as="geometry" />
        </mxCell>
        <mxCell id="CWqJ3quyl7Pq7LgmfmJd-88" value="extend" style="edgeLabel;html=1;align=center;verticalAlign=middle;resizable=0;points=[];" vertex="1" connectable="0" parent="CWqJ3quyl7Pq7LgmfmJd-63">
          <mxGeometry x="-0.657" y="1" relative="1" as="geometry">
            <mxPoint x="-11" as="offset" />
          </mxGeometry>
        </mxCell>
        <mxCell id="CWqJ3quyl7Pq7LgmfmJd-35" value="Comment access" style="ellipse;whiteSpace=wrap;html=1;" vertex="1" parent="CWqJ3quyl7Pq7LgmfmJd-4">
          <mxGeometry x="840" y="630" width="120" height="80" as="geometry" />
        </mxCell>
        <mxCell id="CWqJ3quyl7Pq7LgmfmJd-55" style="rounded=0;orthogonalLoop=1;jettySize=auto;html=1;entryX=1;entryY=0.5;entryDx=0;entryDy=0;endArrow=open;endFill=0;dashed=1;" edge="1" parent="CWqJ3quyl7Pq7LgmfmJd-4" source="CWqJ3quyl7Pq7LgmfmJd-53" target="CWqJ3quyl7Pq7LgmfmJd-28">
          <mxGeometry relative="1" as="geometry" />
        </mxCell>
        <mxCell id="CWqJ3quyl7Pq7LgmfmJd-90" value="extend" style="edgeLabel;html=1;align=center;verticalAlign=middle;resizable=0;points=[];" vertex="1" connectable="0" parent="CWqJ3quyl7Pq7LgmfmJd-55">
          <mxGeometry x="-0.5767" relative="1" as="geometry">
            <mxPoint as="offset" />
          </mxGeometry>
        </mxCell>
        <mxCell id="CWqJ3quyl7Pq7LgmfmJd-62" style="rounded=0;orthogonalLoop=1;jettySize=auto;html=1;entryX=1;entryY=0.5;entryDx=0;entryDy=0;dashed=1;endArrow=open;endFill=0;" edge="1" parent="CWqJ3quyl7Pq7LgmfmJd-4" source="CWqJ3quyl7Pq7LgmfmJd-53" target="CWqJ3quyl7Pq7LgmfmJd-16">
          <mxGeometry relative="1" as="geometry" />
        </mxCell>
        <mxCell id="CWqJ3quyl7Pq7LgmfmJd-89" value="extend" style="edgeLabel;html=1;align=center;verticalAlign=middle;resizable=0;points=[];" vertex="1" connectable="0" parent="CWqJ3quyl7Pq7LgmfmJd-62">
          <mxGeometry x="-0.6926" y="-1" relative="1" as="geometry">
            <mxPoint as="offset" />
          </mxGeometry>
        </mxCell>
        <mxCell id="CWqJ3quyl7Pq7LgmfmJd-53" value="Edit access" style="ellipse;whiteSpace=wrap;html=1;" vertex="1" parent="CWqJ3quyl7Pq7LgmfmJd-4">
          <mxGeometry x="840" y="810" width="120" height="80" as="geometry" />
        </mxCell>
        <mxCell id="CWqJ3quyl7Pq7LgmfmJd-60" style="orthogonalLoop=1;jettySize=auto;html=1;entryX=1;entryY=0.5;entryDx=0;entryDy=0;strokeColor=default;rounded=0;dashed=1;endArrow=open;endFill=0;" edge="1" parent="CWqJ3quyl7Pq7LgmfmJd-4" source="CWqJ3quyl7Pq7LgmfmJd-54" target="CWqJ3quyl7Pq7LgmfmJd-16">
          <mxGeometry relative="1" as="geometry" />
        </mxCell>
        <mxCell id="CWqJ3quyl7Pq7LgmfmJd-85" value="extend" style="edgeLabel;html=1;align=center;verticalAlign=middle;resizable=0;points=[];" vertex="1" connectable="0" parent="CWqJ3quyl7Pq7LgmfmJd-60">
          <mxGeometry x="-0.5627" y="-2" relative="1" as="geometry">
            <mxPoint as="offset" />
          </mxGeometry>
        </mxCell>
        <mxCell id="CWqJ3quyl7Pq7LgmfmJd-61" style="rounded=0;orthogonalLoop=1;jettySize=auto;html=1;entryX=1;entryY=0.5;entryDx=0;entryDy=0;endArrow=open;endFill=0;dashed=1;" edge="1" parent="CWqJ3quyl7Pq7LgmfmJd-4" source="CWqJ3quyl7Pq7LgmfmJd-54" target="CWqJ3quyl7Pq7LgmfmJd-28">
          <mxGeometry relative="1" as="geometry" />
        </mxCell>
        <mxCell id="CWqJ3quyl7Pq7LgmfmJd-86" value="extend" style="edgeLabel;html=1;align=center;verticalAlign=middle;resizable=0;points=[];" vertex="1" connectable="0" parent="CWqJ3quyl7Pq7LgmfmJd-61">
          <mxGeometry x="-0.6926" y="1" relative="1" as="geometry">
            <mxPoint as="offset" />
          </mxGeometry>
        </mxCell>
        <mxCell id="CWqJ3quyl7Pq7LgmfmJd-54" value="Read access" style="ellipse;whiteSpace=wrap;html=1;" vertex="1" parent="CWqJ3quyl7Pq7LgmfmJd-4">
          <mxGeometry x="840" y="450" width="120" height="80" as="geometry" />
        </mxCell>
        <mxCell id="CWqJ3quyl7Pq7LgmfmJd-74" value="include" style="rounded=0;orthogonalLoop=1;jettySize=auto;html=1;dashed=1;endArrow=open;endFill=0;" edge="1" parent="CWqJ3quyl7Pq7LgmfmJd-4" source="CWqJ3quyl7Pq7LgmfmJd-67" target="CWqJ3quyl7Pq7LgmfmJd-12">
          <mxGeometry relative="1" as="geometry" />
        </mxCell>
        <mxCell id="CWqJ3quyl7Pq7LgmfmJd-77" style="rounded=0;orthogonalLoop=1;jettySize=auto;html=1;dashed=1;endArrow=open;endFill=0;" edge="1" parent="CWqJ3quyl7Pq7LgmfmJd-4" source="CWqJ3quyl7Pq7LgmfmJd-67" target="CWqJ3quyl7Pq7LgmfmJd-11">
          <mxGeometry relative="1" as="geometry" />
        </mxCell>
        <mxCell id="CWqJ3quyl7Pq7LgmfmJd-83" value="include" style="edgeLabel;html=1;align=center;verticalAlign=middle;resizable=0;points=[];" vertex="1" connectable="0" parent="CWqJ3quyl7Pq7LgmfmJd-77">
          <mxGeometry x="0.5517" y="1" relative="1" as="geometry">
            <mxPoint as="offset" />
          </mxGeometry>
        </mxCell>
        <mxCell id="CWqJ3quyl7Pq7LgmfmJd-84" value="include" style="edgeLabel;html=1;align=center;verticalAlign=middle;resizable=0;points=[];" vertex="1" connectable="0" parent="CWqJ3quyl7Pq7LgmfmJd-77">
          <mxGeometry x="-0.5248" y="1" relative="1" as="geometry">
            <mxPoint as="offset" />
          </mxGeometry>
        </mxCell>
        <mxCell id="CWqJ3quyl7Pq7LgmfmJd-67" value="Enter login" style="ellipse;whiteSpace=wrap;html=1;" vertex="1" parent="CWqJ3quyl7Pq7LgmfmJd-4">
          <mxGeometry x="190" y="60" width="120" height="80" as="geometry" />
        </mxCell>
        <mxCell id="CWqJ3quyl7Pq7LgmfmJd-75" style="rounded=0;orthogonalLoop=1;jettySize=auto;html=1;dashed=1;endArrow=open;endFill=0;" edge="1" parent="CWqJ3quyl7Pq7LgmfmJd-4" source="CWqJ3quyl7Pq7LgmfmJd-71" target="CWqJ3quyl7Pq7LgmfmJd-12">
          <mxGeometry relative="1" as="geometry" />
        </mxCell>
        <mxCell id="CWqJ3quyl7Pq7LgmfmJd-76" style="rounded=0;orthogonalLoop=1;jettySize=auto;html=1;dashed=1;endArrow=open;endFill=0;" edge="1" parent="CWqJ3quyl7Pq7LgmfmJd-4" source="CWqJ3quyl7Pq7LgmfmJd-71" target="CWqJ3quyl7Pq7LgmfmJd-11">
          <mxGeometry relative="1" as="geometry" />
        </mxCell>
        <mxCell id="CWqJ3quyl7Pq7LgmfmJd-82" value="include" style="edgeLabel;html=1;align=center;verticalAlign=middle;resizable=0;points=[];" vertex="1" connectable="0" parent="CWqJ3quyl7Pq7LgmfmJd-76">
          <mxGeometry x="-0.0438" y="1" relative="1" as="geometry">
            <mxPoint as="offset" />
          </mxGeometry>
        </mxCell>
        <mxCell id="CWqJ3quyl7Pq7LgmfmJd-71" value="Enter password" style="ellipse;whiteSpace=wrap;html=1;" vertex="1" parent="CWqJ3quyl7Pq7LgmfmJd-4">
          <mxGeometry x="430" y="60" width="120" height="80" as="geometry" />
        </mxCell>
        <mxCell id="CWqJ3quyl7Pq7LgmfmJd-78" value="include" style="rounded=0;orthogonalLoop=1;jettySize=auto;html=1;dashed=1;endArrow=open;endFill=0;" edge="1" parent="CWqJ3quyl7Pq7LgmfmJd-4" source="CWqJ3quyl7Pq7LgmfmJd-72" target="CWqJ3quyl7Pq7LgmfmJd-11">
          <mxGeometry relative="1" as="geometry" />
        </mxCell>
        <mxCell id="CWqJ3quyl7Pq7LgmfmJd-72" value="Submit password" style="ellipse;whiteSpace=wrap;html=1;" vertex="1" parent="CWqJ3quyl7Pq7LgmfmJd-4">
          <mxGeometry x="670" y="60" width="120" height="80" as="geometry" />
        </mxCell>
        <mxCell id="CWqJ3quyl7Pq7LgmfmJd-91" value="Read instruction" style="ellipse;whiteSpace=wrap;html=1;" vertex="1" parent="CWqJ3quyl7Pq7LgmfmJd-4">
          <mxGeometry x="30" y="210" width="120" height="80" as="geometry" />
        </mxCell>
      </root>
    </mxGraphModel>
  </diagram>
</mxfile>
